<svg width="600" height="720" viewBox="0 0 600 720" xmlns="http://www.w3.org/2000/svg">
  <style>
    .bg-player1 { fill: #E0B0B0; }
    .bg-player2 { fill: #B0B0E0; }
    .bg-neutral { fill: #D0D0D0; }
    .objective { fill: #505050; stroke: black; stroke-width: 1; }
    .objective-text { fill: white; font-family: Arial, sans-serif; font-size: 20px; text-anchor: middle; dominant-baseline: central; }
    .objective-40-text { fill: white; font-family: Arial, sans-serif; font-size: 18px; text-anchor: middle; dominant-baseline: central; }
    .flag-cache { fill: #303030; stroke: black; stroke-width: 1; }
    .flag-cache-text { fill: white; font-family: Arial, sans-serif; font-size: 18px; text-anchor: middle; dominant-baseline: central; }
    .label-text { fill: black; font-family: Arial, sans-serif; font-size: 14px; text-anchor: middle; }
    .measurement-text { fill: black; font-family: Arial, sans-serif; font-size: 12px; text-anchor: middle; }
  </style>

  <!-- Backgrounds -->
  <rect class="bg-player1" x="0" y="0" width="600" height="180" />
  <rect class="bg-neutral" x="0" y="180" width="600" height="360" />
  <rect class="bg-player2" x="0" y="540" width="600" height="180" />

  <!-- Deployment Zone Labels -->
  <text class="label-text" x="500" y="30">Player 1</text>
  <text class="label-text" x="500" y="50">Deployment Zone</text>
  <text class="label-text" x="500" y="690">Player 2</text>
  <text class="label-text" x="500" y="710">Deployment Zone</text>

  <!-- Measurements (approximate) -->
  <text class="measurement-text" x="30" y="100">6"</text>
  <text class="measurement-text" x="310" y="140">12"</text> <!-- Top center -->
  <text class="measurement-text" x="200" y="280">22"</text> <!-- Top left 40 -->
  <text class="measurement-text" x="440" y="260">23"</text> <!-- Top right F -->
  <text class="measurement-text" x="100" y="440">30"</text> <!-- Mid left 50 -->
  <text class="measurement-text" x="480" y="380">12"</text> <!-- Mid right 50 -->
  <text class="measurement-text" x="70" y="480">6"</text> <!-- Bottom left F -->
  <text class="measurement-text" x="400" y="520">20"</text> <!-- Bottom center 40-->
  <text class="measurement-text" x="480" y="460">20"</text> <!-- Bottom center 40-->
  <text class="measurement-text" x="30" y="620">11"</text>

  <!-- Scenario Elements -->
  <!-- 40 Obj (Top Leftish) -->
  <circle class="objective" cx="290" cy="250" r="20" />
  <text class="objective-40-text" x="290" y="250">40</text>

  <!-- Flag (Top Rightish) -->
  <circle class="flag-cache" cx="480" cy="300" r="15" />
  <text class="flag-cache-text" x="480" y="300">F</text>

  <!-- Cache (Top-Mid Leftish) -->
  <circle class="flag-cache" cx="250" cy="330" r="15" />
  <text class="flag-cache-text" x="250" y="330">C</text>

  <!-- 50 Obj (Mid Left) -->
  <circle class="objective" cx="180" cy="390" r="25" />
  <text class="objective-text" x="180" y="390">50</text>

  <!-- 50 Obj (Mid Right) -->
  <circle class="objective" cx="420" cy="390" r="25" />
  <text class="objective-text" x="420" y="390">50</text>

  <!-- Cache (Mid-Bottom Center) -->
  <circle class="flag-cache" cx="370" cy="430" r="15" />
  <text class="flag-cache-text" x="370" y="430">C</text>

  <!-- Flag (Bottom Leftish) -->
  <circle class="flag-cache" cx="120" cy="500" r="15" />
  <text class="flag-cache-text" x="120" y="500">F</text>

  <!-- 40 Obj (Bottom Center) -->
  <circle class="objective" cx="310" cy="480" r="20" />
  <text class="objective-40-text" x="310" y="480">40</text>
  <!-- lines -->
  <line x1="50" y1="0" x2="50" y2="180" stroke="white" stroke-width="4"  style="stroke-dasharray: 10 5;" /><!-- P1 deploy -->
  <line x1="50" y1="540" x2="50" y2="720" stroke="white" stroke-width="4"  style="stroke-dasharray: 10 5;" /><!-- P2 deploy -->
  <line x1="0" y1="250" x2="270" y2="250" stroke="white" stroke-width="4"  style="stroke-dasharray: 10 5;" /><!-- LEFT 22 top 12 -->
  <line x1="290" y1="0" x2="290" y2="230" stroke="white" stroke-width="4"  style="stroke-dasharray: 10 5;" /><!-- left 22 TOP 12 -->
  <line x1="0" y1="500" x2="100" y2="500" stroke="white" stroke-width="4"  style="stroke-dasharray: 10 5;" /><!-- LEFT 6 top 30 -->
  <line x1="120" y1="0" x2="120" y2="480" stroke="white" stroke-width="4"  style="stroke-dasharray: 10 5;" /><!-- left 6 TOP 30 -->
  <line x1="450" y1="390" x2="600" y2="390" stroke="white" stroke-width="4"  style="stroke-dasharray: 10 5;" /><!-- RIGHT 12 top 23 -->
  <line x1="420" y1="0" x2="420" y2="360" stroke="white" stroke-width="4"  style="stroke-dasharray: 10 5;" /><!-- right 12 TOP 23 -->
  <line x1="390" y1="430" x2="600" y2="430" stroke="white" stroke-width="4"  style="stroke-dasharray: 10 5;" /><!-- RIGHT 20 bottom 20 -->
  <line x1="370" y1="450" x2="370" y2="720" stroke="white" stroke-width="4"  style="stroke-dasharray: 10 5;" /><!-- right 20 BOTTOM 20 -->
</svg>