<?xml version="1.0" standalone="no"?>
<!DOCTYPE svg PUBLIC "-//W3C//DTD SVG 20010904//EN"
 "http://www.w3.org/TR/2001/REC-SVG-20010904/DTD/svg10.dtd">
<svg version="1.0" xmlns="http://www.w3.org/2000/svg"
 width="440.000000pt" height="440.000000pt" viewBox="0 0 440.000000 440.000000"
 preserveAspectRatio="xMidYMid meet">
<metadata>
Created by potrace 1.11, written by Peter Selinger 2001-2013
</metadata>
<g transform="translate(0.000000,440.000000) scale(0.100000,-0.100000)"
fill="#000000" stroke="none">
<path d="M2188 4395 c-2 -1 -55 -5 -118 -9 -63 -3 -126 -8 -140 -11 -14 -3
-37 -6 -52 -7 -16 -1 -28 -5 -28 -9 0 -3 -11 -4 -25 -1 -14 2 -25 0 -25 -4 0
-5 -10 -9 -22 -10 -34 -1 -92 -12 -122 -23 -14 -6 -26 -9 -26 -6 0 7 -256 -83
-312 -110 -28 -14 -57 -25 -64 -25 -7 0 -14 -3 -16 -7 -2 -5 -39 -27 -83 -50
-44 -23 -79 -47 -77 -53 1 -6 -2 -9 -7 -6 -9 6 -73 -26 -97 -49 -6 -5 -22 -17
-34 -25 -65 -43 -224 -176 -287 -241 -112 -116 -163 -173 -163 -181 0 -4 -8
-15 -18 -25 -36 -36 -92 -124 -86 -135 4 -6 3 -8 -3 -5 -6 4 -18 -4 -27 -18
-9 -14 -14 -25 -11 -25 3 0 -3 -10 -15 -22 -11 -12 -20 -25 -20 -29 0 -4 -16
-35 -36 -68 -21 -36 -33 -65 -28 -73 4 -7 3 -10 -1 -5 -9 8 -54 -82 -87 -173
-11 -30 -22 -62 -25 -70 -4 -8 -7 -17 -8 -20 -1 -3 -4 -12 -7 -20 -15 -41 -33
-107 -33 -120 1 -8 -2 -17 -6 -20 -9 -8 -37 -158 -34 -185 1 -14 -2 -22 -6
-19 -5 3 -10 -10 -10 -28 -2 -38 -4 -57 -13 -125 -15 -117 -5 -394 20 -530 2
-13 6 -35 9 -50 18 -100 29 -151 39 -168 5 -11 9 -24 8 -28 -3 -9 44 -151 78
-237 27 -70 128 -270 146 -291 8 -8 14 -19 14 -23 0 -4 22 -40 49 -81 44 -65
65 -94 96 -129 6 -6 23 -29 40 -51 36 -49 220 -234 295 -296 68 -57 234 -169
249 -169 6 0 11 -4 11 -9 0 -4 21 -19 48 -32 26 -13 54 -29 62 -35 68 -51 461
-193 496 -180 9 3 12 1 9 -4 -3 -6 0 -10 7 -11 7 0 22 -2 33 -5 11 -2 31 -5
45 -7 14 -2 32 -7 39 -11 7 -4 15 -6 17 -3 3 2 22 1 42 -4 98 -23 415 -32 562
-16 79 9 252 37 263 44 4 2 20 7 35 10 52 10 124 30 161 45 14 6 35 13 46 15
10 2 22 7 25 11 3 4 14 9 25 10 36 6 150 61 148 71 -2 6 3 8 11 5 20 -8 98 34
90 48 -4 7 -3 8 5 4 14 -9 72 16 91 39 7 8 19 15 26 15 8 0 14 3 14 8 0 4 13
13 28 20 16 6 37 20 48 30 10 9 37 29 59 44 171 113 391 345 533 562 69 105
196 345 187 354 -2 3 0 11 5 17 13 16 71 175 63 175 -3 0 -1 6 5 13 19 24 80
300 78 357 -1 16 2 30 6 30 3 0 6 19 6 43 0 23 1 44 2 47 8 18 6 297 -3 308
-6 8 -6 12 2 12 7 0 10 4 7 8 -3 5 -7 33 -10 63 -11 114 -19 159 -27 165 -5 3
-7 9 -4 13 8 14 -49 249 -75 306 -5 11 -16 40 -24 65 -23 74 -109 255 -158
338 -11 17 -25 29 -30 26 -7 -4 -8 -2 -4 5 8 13 -61 120 -153 236 -63 80 -229
249 -311 316 -96 79 -249 181 -261 173 -7 -4 -9 -3 -6 3 4 6 -10 19 -31 29
-20 10 -38 22 -40 27 -2 4 -10 7 -19 7 -8 0 -21 7 -30 15 -8 8 -19 13 -24 10
-5 -4 -9 -1 -9 4 0 6 -4 11 -9 11 -5 0 -44 16 -86 36 -42 20 -79 33 -82 30 -3
-3 -12 2 -21 10 -8 9 -23 13 -34 11 -10 -3 -16 -2 -14 2 7 11 -142 54 -156 45
-7 -5 -8 -3 -3 6 6 10 4 12 -8 7 -9 -3 -17 -2 -19 3 -2 4 -20 11 -42 14 -21 4
-41 8 -45 10 -4 3 -27 7 -52 10 -25 3 -52 8 -60 11 -15 5 -59 10 -204 20 -49
4 -105 8 -122 9 -18 2 -34 2 -35 1z m-177 -112 c13 -16 12 -17 -3 -4 -10 7
-18 15 -18 17 0 8 8 3 21 -13z m760 -120 c13 -16 12 -17 -3 -4 -17 13 -22 21
-14 21 2 0 10 -8 17 -17z m-516 -43 c3 -6 -1 -7 -9 -4 -18 7 -21 14 -7 14 6 0
13 -4 16 -10z m5 -167 c48 -1 185 -11 185 -13 0 -1 26 -6 75 -14 25 -4 106
-23 145 -33 11 -3 30 -6 42 -7 11 0 19 -4 16 -8 -2 -5 3 -8 12 -8 8 0 53 -15
100 -34 47 -19 85 -31 85 -28 0 4 4 3 8 -3 4 -5 30 -21 57 -35 28 -13 76 -39
107 -58 32 -18 60 -33 63 -32 3 0 13 -8 24 -17 25 -25 148 -116 172 -128 10
-5 19 -15 19 -22 0 -7 4 -13 8 -13 5 0 39 -31 77 -69 38 -39 73 -67 78 -64 6
3 7 1 3 -5 -9 -14 78 -124 89 -114 5 4 5 2 2 -5 -4 -6 -1 -17 6 -25 20 -21
114 -173 122 -197 3 -12 10 -19 14 -17 4 3 7 -3 8 -12 1 -9 15 -47 32 -83 56
-124 109 -296 126 -409 15 -105 23 -185 24 -270 1 -52 4 -96 6 -99 2 -2 0 -12
-6 -22 -7 -14 -6 -19 3 -19 8 0 9 -3 3 -8 -5 -4 -11 -18 -12 -32 -4 -59 -12
-127 -18 -155 -3 -16 -8 -43 -9 -60 -2 -16 -9 -43 -15 -58 -6 -16 -11 -34 -11
-40 0 -7 -14 -50 -31 -97 -17 -47 -36 -98 -41 -115 -6 -16 -15 -34 -19 -39 -5
-6 -9 -16 -9 -23 0 -6 -22 -51 -50 -99 -27 -48 -50 -89 -50 -91 0 -7 -91 -134
-138 -191 -47 -59 -206 -217 -247 -245 -14 -10 -22 -23 -19 -29 4 -7 2 -8 -4
-4 -6 4 -20 -2 -30 -12 -10 -10 -26 -22 -36 -25 -9 -4 -14 -12 -11 -17 4 -6 3
-9 -2 -8 -14 4 -53 -13 -53 -23 0 -5 -7 -9 -15 -9 -9 0 -18 -7 -21 -15 -4 -8
-9 -13 -13 -10 -4 2 -33 -12 -65 -31 -31 -18 -60 -34 -63 -34 -3 0 -31 -12
-62 -27 -68 -32 -234 -89 -287 -99 -22 -3 -43 -9 -49 -13 -5 -3 -14 -6 -20 -7
-5 -1 -26 -5 -45 -8 -56 -11 -265 -28 -335 -29 -30 0 -208 15 -227 19 -13 3
-41 7 -63 9 -22 2 -40 5 -40 5 0 1 -7 3 -15 5 -8 2 -49 13 -90 25 -41 11 -84
23 -95 25 -11 3 -29 9 -40 14 -93 42 -147 61 -157 55 -7 -4 -8 -3 -4 4 6 11
-6 16 -26 13 -5 0 -8 4 -8 9 0 6 -4 10 -9 10 -5 0 -44 20 -86 45 -42 25 -81
42 -87 39 -6 -4 -8 -3 -5 3 4 6 -4 18 -18 27 -14 9 -25 14 -25 12 0 -3 -10 5
-23 17 -13 12 -43 38 -68 56 -44 35 -227 215 -264 262 -11 13 -31 41 -45 61
-13 20 -28 34 -32 32 -5 -3 -8 -2 -7 3 3 17 -2 30 -18 49 -35 39 -153 273
-174 341 -6 24 -16 40 -22 36 -6 -3 -7 -1 -3 5 3 6 0 30 -8 54 -8 24 -20 69
-27 101 -8 38 -15 53 -21 45 -5 -8 -6 -2 -2 15 4 16 1 33 -6 42 -8 9 -8 15 -2
15 7 0 8 10 2 31 -30 103 -29 398 1 572 5 31 7 62 4 67 -3 6 -2 10 3 10 9 0
37 111 35 138 -1 7 2 11 5 8 8 -9 43 104 36 116 -4 7 -3 8 4 4 7 -4 12 -2 12
5 0 17 96 214 128 261 13 21 21 42 16 49 -4 7 -3 9 4 5 6 -4 16 4 23 16 6 13
21 33 32 46 11 12 18 22 14 22 -3 0 12 19 33 43 22 23 38 48 35 55 -3 7 -1 11
4 8 4 -3 49 37 100 89 51 52 96 95 100 95 3 0 14 8 23 18 37 38 225 167 276
189 17 7 32 18 32 23 0 6 7 10 15 10 8 0 43 13 77 28 127 58 306 115 400 127
18 3 44 7 58 10 30 6 122 14 203 17 31 2 57 7 57 13 0 7 3 7 8 0 4 -6 27 -11
52 -12z m544 -39 c3 -8 2 -12 -4 -9 -6 3 -10 10 -10 16 0 14 7 11 14 -7z m401
-14 c3 -5 1 -10 -4 -10 -6 0 -11 5 -11 10 0 6 2 10 4 10 3 0 8 -4 11 -10z
m116 -67 c13 -16 12 -17 -3 -4 -17 13 -22 21 -14 21 2 0 10 -8 17 -17z m-2111
-17 c0 -2 -8 -10 -17 -17 -16 -13 -17 -12 -4 4 13 16 21 21 21 13z m2075 -165
c3 -5 2 -12 -3 -15 -5 -3 -9 1 -9 9 0 17 3 19 12 6z m110 -51 c3 -6 -1 -7 -9
-4 -18 7 -21 14 -7 14 6 0 13 -4 16 -10z m-2904 -117 c13 -16 12 -17 -3 -4
-10 7 -18 15 -18 17 0 8 8 3 21 -13z m9 -479 c0 -8 -19 -13 -24 -6 -3 5 1 9 9
9 8 0 15 -2 15 -3z m61 -91 c13 -16 12 -17 -3 -4 -10 7 -18 15 -18 17 0 8 8 3
21 -13z m3520 0 c13 -16 12 -17 -3 -4 -17 13 -22 21 -14 21 2 0 10 -8 17 -17z
m-3637 -119 c3 -8 2 -12 -4 -9 -6 3 -10 10 -10 16 0 14 7 11 14 -7z m3806 -98
c0 -2 -8 -10 -17 -17 -16 -13 -17 -12 -4 4 13 16 21 21 21 13z m36 -62 c1 -9
0 -13 -4 -10 -3 4 -7 14 -8 22 -1 9 0 13 4 10 3 -4 7 -14 8 -22z m44 -738 c0
-2 -8 -10 -17 -17 -16 -13 -17 -12 -4 4 13 16 21 21 21 13z m-4070 -250 c0 -2
-8 -10 -17 -17 -16 -13 -17 -12 -4 4 13 16 21 21 21 13z m205 -294 c-3 -3 -11
0 -18 7 -9 10 -8 11 6 5 10 -3 15 -9 12 -12z m145 -216 c0 -2 -8 -10 -17 -17
-16 -13 -17 -12 -4 4 13 16 21 21 21 13z m121 -53 c13 -16 12 -17 -3 -4 -10 7
-18 15 -18 17 0 8 8 3 21 -13z m-130 -50 c13 -16 12 -17 -3 -4 -10 7 -18 15
-18 17 0 8 8 3 21 -13z m59 -27 c0 -2 -8 -10 -17 -17 -16 -13 -17 -12 -4 4 13
16 21 21 21 13z m270 -190 c0 -2 -8 -10 -17 -17 -16 -13 -17 -12 -4 4 13 16
21 21 21 13z m-9 -103 c13 -16 12 -17 -3 -4 -17 13 -22 21 -14 21 2 0 10 -8
17 -17z m2149 -153 c0 -5 -2 -10 -4 -10 -3 0 -8 5 -11 10 -3 6 -1 10 4 10 6 0
11 -4 11 -10z m-506 -146 c3 -8 2 -12 -4 -9 -6 3 -10 10 -10 16 0 14 7 11 14
-7z m191 -14 c-3 -5 -12 -10 -18 -10 -7 0 -6 4 3 10 19 12 23 12 15 0z m526
-47 c13 -16 12 -17 -3 -4 -17 13 -22 21 -14 21 2 0 10 -8 17 -17z m-1720 -40
c13 -16 12 -17 -3 -4 -17 13 -22 21 -14 21 2 0 10 -8 17 -17z"/>
<path d="M2580 3689 c-74 -10 -158 -20 -186 -24 -29 -3 -62 -8 -75 -10 -13 -3
-44 -7 -69 -10 -25 -3 -56 -8 -70 -10 -14 -3 -38 -7 -55 -9 -96 -15 -524 -86
-545 -91 -14 -3 -50 -9 -80 -15 -30 -5 -66 -12 -80 -14 -14 -3 -50 -11 -80
-17 -95 -19 -157 -39 -173 -57 -46 -51 -449 -1074 -548 -1390 l-29 -93 21 -40
c21 -43 150 -216 308 -414 99 -124 102 -127 171 -210 23 -27 49 -59 59 -70 30
-38 116 -140 121 -145 3 -3 34 -39 70 -80 36 -41 70 -80 75 -86 60 -70 184
-186 203 -191 22 -5 188 2 272 11 19 3 64 7 100 11 68 6 367 43 410 50 14 2
72 11 130 19 118 17 290 43 335 51 161 29 259 49 303 61 59 18 68 31 137 200
20 49 40 98 45 109 25 52 287 754 381 1018 46 129 51 150 40 171 -42 77 -858
1126 -979 1257 -38 42 -32 42 -212 18z m76 -129 c77 -16 117 -51 250 -216 568
-706 693 -863 694 -875 8 -51 -23 -64 -220 -94 -194 -29 -748 -115 -990 -154
-126 -21 -177 -19 -230 8 -33 17 -141 139 -395 450 -55 68 -107 131 -115 141
-8 10 -60 73 -115 140 -55 68 -129 157 -164 199 -122 147 -116 193 29 216 19
3 60 10 90 15 30 5 73 12 95 16 22 3 148 23 280 45 132 22 251 42 265 44 101
16 397 66 404 68 25 8 75 6 122 -3z m-1454 -401 c13 -6 43 -36 68 -67 25 -31
88 -109 140 -173 52 -64 111 -136 130 -159 19 -24 132 -162 251 -307 230 -281
257 -327 245 -402 -3 -20 -33 -109 -67 -197 -33 -87 -97 -253 -141 -369 -45
-115 -107 -280 -140 -365 -74 -195 -85 -214 -125 -218 -34 -3 -16 -22 -223
233 -45 55 -89 109 -98 120 -9 11 -53 65 -97 120 -44 55 -82 102 -85 105 -5 5
-46 56 -256 317 -113 140 -125 200 -68 348 12 33 38 101 57 150 19 50 64 169
102 265 37 96 77 202 90 235 147 389 151 395 217 364z m2358 -909 c31 -16 34
-68 10 -130 -12 -30 -32 -82 -45 -115 -143 -383 -344 -897 -357 -913 -24 -31
-63 -63 -98 -81 -30 -16 -80 -26 -285 -57 -16 -2 -41 -6 -55 -9 -14 -2 -41 -6
-60 -9 -19 -3 -55 -7 -80 -11 -25 -3 -70 -10 -100 -15 -30 -5 -118 -18 -195
-30 -77 -11 -151 -22 -165 -25 -14 -2 -41 -6 -60 -9 -19 -2 -84 -12 -143 -21
-148 -23 -187 -14 -187 43 0 14 54 160 181 487 21 55 83 217 138 360 55 143
109 271 119 285 11 14 39 37 63 52 41 25 160 49 429 84 19 3 44 7 56 9 11 3
68 11 125 19 57 9 149 22 204 31 55 8 118 18 140 21 22 3 61 9 87 14 26 5 73
12 105 16 32 3 60 8 62 10 9 8 93 4 111 -6z"/>
<path d="M2283 3019 c-134 -66 -10 -253 185 -276 68 -8 115 3 153 34 28 24 31
31 26 69 -6 53 -34 94 -94 133 -92 61 -197 77 -270 40z"/>
<path d="M1171 2977 c-63 -32 -89 -181 -50 -283 23 -61 78 -119 121 -128 96
-19 159 123 118 269 -14 50 -68 118 -111 140 -34 18 -47 18 -78 2z"/>
<path d="M1315 2242 c-85 -19 -114 -223 -48 -331 16 -25 44 -56 62 -68 64 -43
116 -23 151 60 33 76 25 177 -19 245 -43 67 -100 104 -146 94z"/>
<path d="M1443 1498 c-52 -14 -77 -72 -77 -178 0 -67 4 -93 21 -125 59 -111
137 -145 194 -84 84 90 64 274 -39 359 -42 35 -58 39 -99 28z"/>
<path d="M2419 2020 c-161 -28 -296 -218 -211 -296 24 -23 34 -26 82 -22 150
11 301 168 259 269 -16 41 -67 60 -130 49z"/>
<path d="M3010 1368 c-62 -11 -106 -34 -157 -81 -77 -71 -104 -149 -69 -201
42 -64 188 -39 277 48 129 125 99 261 -51 234z"/>
</g>
</svg>
